<svg xmlns="http://www.w3.org/2000/svg" width="65" height="65">
    <rect fill="rgb(53,53,53)" height="65" opacity="1" rx="6" ry="6" stroke-width="1" stroke="rgb(0,0,0)" width="65" x="0" y="0"></rect>
    <rect fill="rgb(255,166,0)" height="10" opacity="1" rx="2" ry="2" stroke-width="1" stroke="rgb(255,166,0)" width="10" x="5" y="20"></rect>
    <rect fill="rgb(255,166,0)" height="10" opacity="1" rx="2" ry="2" stroke-width="1" stroke="rgb(255,166,0)" width="10" x="20" y="20"></rect>
    <rect fill="rgb(255,166,0)" height="10" opacity="1" rx="2" ry="2" stroke-width="1" stroke="rgb(255,166,0)" width="10" x="35" y="20"></rect>
    <rect fill="rgb(255,166,0)" height="10" opacity="1" rx="2" ry="2" stroke-width="1" stroke="rgb(255,166,0)" width="10" x="50" y="20"></rect>
    <rect fill="rgb(255,166,0)" height="10" opacity="1" rx="2" ry="2" stroke-width="1" stroke="rgb(255,166,0)" width="10" x="5" y="35"></rect>
    <rect fill="rgb(255,166,0)" height="10" opacity="1" rx="2" ry="2" stroke-width="1" stroke="rgb(255,166,0)" width="10" x="20" y="35"></rect>
    <rect fill="rgb(255,166,0)" height="10" opacity="1" rx="2" ry="2" stroke-width="1" stroke="rgb(255,166,0)" width="10" x="35" y="35"></rect>
    <rect fill="rgb(255,166,0)" height="10" opacity="1" rx="2" ry="2" stroke-width="1" stroke="rgb(255,166,0)" width="10" x="50" y="35"></rect>
    <rect fill="rgb(255,166,0)" height="10" opacity="1" rx="2" ry="2" stroke-width="1" stroke="rgb(255,166,0)" width="10" x="5" y="50"></rect>
    <rect fill="rgb(255,166,0)" height="10" opacity="1" rx="2" ry="2" stroke-width="1" stroke="rgb(255,166,0)" width="10" x="20" y="50"></rect>
    <rect fill="rgb(255,166,0)" height="10" opacity="1" rx="2" ry="2" stroke-width="1" stroke="rgb(255,166,0)" width="10" x="35" y="50"></rect>
    <rect fill="rgb(255,166,0)" height="10" opacity="1" rx="2" ry="2" stroke-width="1" stroke="rgb(255,166,0)" width="10" x="50" y="50"></rect>
</svg>